<?xml version="1.0" encoding="UTF-8" standalone="no"?>
<!DOCTYPE svg PUBLIC "-//W3C//DTD SVG 1.1//EN" "http://www.w3.org/Graphics/SVG/1.1/DTD/svg11.dtd">
<svg version="1.1" xmlns="http://www.w3.org/2000/svg" xmlns:xlink="http://www.w3.org/1999/xlink" preserveAspectRatio="xMidYMid meet" viewBox="0 0 512 512" width="512" height="512"><defs><path d="M416 320C396.79 320 300.75 320 127.87 320L127.87 256L0 352L127.87 448L127.87 384C300.75 384 396.79 384 416 384C468.94 384 512 340.88 512 288C507.73 288 486.4 288 448 288C438.42 309.33 427.75 320 416 320Z" id="dO4SFQrK9"></path><path d="M384 192L384 256L512 160L384 64L384 128C211.2 128 115.2 128 96 128C43.06 128 0 171.01 0 224C6.4 224 57.6 224 64 224C64 206.37 78.37 192 96 192C134.4 192 230.4 192 384 192Z" id="d2yBK47dR0"></path></defs><g><g><g><use xlink:href="#dO4SFQrK9" opacity="1" fill="#ffffff" fill-opacity="1"></use><g><use xlink:href="#dO4SFQrK9" opacity="1" fill-opacity="0" stroke="#000000" stroke-width="1" stroke-opacity="0"></use></g></g><g><use xlink:href="#d2yBK47dR0" opacity="1" fill="#ffffff" fill-opacity="1"></use><g><use xlink:href="#d2yBK47dR0" opacity="1" fill-opacity="0" stroke="#000000" stroke-width="1" stroke-opacity="0"></use></g></g></g></g></svg>