<svg id="b598fe9a-dc76-46c8-8f77-bd2e4e8850f4" data-name="katman 1" xmlns="http://www.w3.org/2000/svg" xmlns:xlink="http://www.w3.org/1999/xlink" viewBox="0 0 274 274"><defs><style>.bcb01f9a-3644-488d-a0b2-db65e99f29a0{fill:#fff;}.a694d430-0a20-4653-9873-a0da67208938{fill:url(#eef72b5a-23e9-4c9d-8a9d-07dd750b9036);}</style><linearGradient id="eef72b5a-23e9-4c9d-8a9d-07dd750b9036" x1="513.17" y1="624.34" x2="513.17" y2="400" gradientUnits="userSpaceOnUse"><stop offset="0" stop-color="#ff2e63"/><stop offset="1" stop-color="#ff2e63"/></linearGradient></defs><circle class="bcb01f9a-3644-488d-a0b2-db65e99f29a0" cx="137" cy="137" r="137"/><path class="a694d430-0a20-4653-9873-a0da67208938" d="M513.16,400A112.17,112.17,0,1,0,625.34,512.17,112.17,112.17,0,0,0,513.16,400Zm66.55,91.74a5.73,5.73,0,1,1-11.28-2,40.09,40.09,0,0,0-26.84-45.11c-2.11,11.81-19,106.19-21.09,118l0,.35c-.07.34-.13.73-.2,1.06-2.63,14.77-19.94,24.07-38.61,20.73s-31.67-18-29-32.81,19.94-24.08,38.61-20.73a39.53,39.53,0,0,1,21.32,10.9c1.88-10.54,17-95,18.85-105.52a5.73,5.73,0,0,1,6.65-4.63A51.55,51.55,0,0,1,579.71,491.74Z" transform="translate(-375 -375)"/></svg>