<svg id="e7c37040-28f8-47bb-adf1-a169fb940aff" data-name="katman 1" xmlns="http://www.w3.org/2000/svg" xmlns:xlink="http://www.w3.org/1999/xlink" viewBox="0 0 824.61 274"><defs><style>.a620cf17-c8bb-45fc-8056-4a6018fb321c{fill:#fff;}.fb687a2b-9985-4463-a94c-9439d899be24{fill:url(#a3a06142-ab00-4f11-8aa7-80c761d3d43d);}.a908c061-d21e-4973-a430-5fbef28552c6{isolation:isolate;}.ab93c24f-906d-4e4f-837b-0308e16b2da5{fill:url(#ba263cce-ce14-4699-b5f0-7e35418be962);}.bbd6ad3f-7776-4572-8f0c-9d5cf7ae0228{fill:url(#f2af373e-fc9d-4d28-958f-a0b7b49ec732);}.ac30de70-15b3-4247-9d5c-1ef595d6e794{fill:url(#a1ac817b-cb98-4119-b7a1-faadf05be7c7);}.a7c1e532-e62e-4ddd-aa71-9bc81c19929a{fill:url(#b1418f90-629a-4fe4-a4f8-24a8026e3b68);}.a93af745-4ddd-48c1-8104-f4efebc629ba{fill:url(#a95cf799-7a7c-438a-a404-fe74049a3bf6);}.a310645e-6704-4e53-831b-06d74a8a9c0f{fill:url(#f2bb3529-f28a-4e72-8c26-b9bada4b3536);}.be8fc56b-e07f-409c-9401-c5cb0c6234b2{fill:url(#af73d201-55fe-40f4-91c8-6d23c9e3d0f9);}.ffd38d7b-7a2f-4429-aeff-eecd77873886{fill:url(#bab8995f-b1bc-4843-848a-bd32bb690ed5);}.aab1dd4d-0bdc-4b30-8a05-18d5ebbd8afa{fill:url(#ada10d50-bf74-40f3-a6de-d7138ccbc184);}.b6bb7482-dfc4-4220-998c-c0a8fb2073d4{fill:url(#efac4c92-3a96-44f4-8125-a7317ecb03aa);}.fe8fdc4d-4dd5-49a1-a18a-99d0c6c14061{fill:url(#b26bf6b5-0546-4b95-bea9-2fc0231aaac2);}.f299d969-372e-48b1-be8d-11c8343719ae{fill:url(#e826466b-f620-4e10-aa64-af8e6c357220);}.bdfff77e-52e8-45b2-9e39-e72cd26ac510{fill:url(#ae491131-ccb6-4839-bd79-03671d66bcc5);}.b9377e0f-4dff-4e45-8c06-5a7887dac4e8{fill:url(#a4b229bb-8280-46eb-9bf8-86b2417bcb97);}.b2ac45a7-7416-4ed5-9da2-d05df03d2171{fill:url(#b4df78af-ab6f-4909-891b-3ac23cba673f);}.af7b7ec2-067f-4554-9e1e-eebf864d61f7{fill:url(#bc3707f0-529e-4b53-a9cc-4cf3b911a2ad);}.bd98518a-ed9b-4809-92e6-da6b5128a675{fill:url(#bc860219-52ce-4ea5-aab5-255c18ae3916);}.ecb4cd3e-6ea3-4cd3-a039-bd667db7b747{fill:url(#fbe80509-758e-4ca2-a994-06b7ad62935c);}.a60ec23b-a345-44cc-b575-10b29cb8603d{fill:url(#be51784e-5f76-4e96-951f-6a730fb4caeb);}.ad9f0e45-8405-4fe3-8786-424531b19481{fill:url(#b19f06c0-de93-4fc2-a32c-871d00334a35);}.b122860c-f6b9-4ce4-a611-64fb436ef060{fill:url(#a08ce06b-dbe6-4c2e-90ed-b67973521560);}.adeddf57-4bf9-4f0a-96d4-905b5c3a87f3{fill:url(#bd647754-f972-4f27-a5b7-9701dc8042f6);}.ad61fb21-9bcb-42ae-80e8-aff33b7e23f6{fill:url(#ffea7381-6a47-495e-a1d1-9b036cdc02fb);}.a1d6ed82-9bd7-4dcf-b2c9-a1eb1402a139{fill:url(#a1a53d39-9d99-46d1-8f1c-d27f422c95f9);}.a33bb959-b8c0-4ffd-b353-73bafefbc29c{fill:url(#a4f2a787-1a2c-46ad-b7e9-faa8ebeb7b41);}.e98ba011-084c-4922-8adc-e6965a7fecee{fill:url(#e689a6d6-e969-4427-af5f-f8848b0f5ab6);}.a8a94b62-1959-4c4d-b22c-9e57545fb945{fill:url(#aefeec88-a4ae-4b46-8172-51b07038a1d3);}.b6bccbbe-fd08-406b-a384-c0d44666c150{fill:url(#b25087db-f06c-4e96-99d6-6f4b3067e632);}.ea85ceb0-f439-4d33-954c-81ce1b89e64a{fill:url(#b8f2f9ae-6644-4a35-9767-d7cbd570d5e0);}</style><linearGradient id="a3a06142-ab00-4f11-8aa7-80c761d3d43d" x1="240.17" y1="624.34" x2="240.17" y2="400" gradientUnits="userSpaceOnUse"><stop offset="0" stop-color="#ff2e63"/><stop offset="1" stop-color="#ff2e63"/></linearGradient><linearGradient id="ba263cce-ce14-4699-b5f0-7e35418be962" x1="421.83" y1="487.33" x2="520.24" y2="487.33" xlink:href="#a3a06142-ab00-4f11-8aa7-80c761d3d43d"/><linearGradient id="f2af373e-fc9d-4d28-958f-a0b7b49ec732" x1="535.1" y1="497.79" x2="605.74" y2="497.79" xlink:href="#a3a06142-ab00-4f11-8aa7-80c761d3d43d"/><linearGradient id="a1ac817b-cb98-4119-b7a1-faadf05be7c7" x1="617.95" y1="497.79" x2="681.75" y2="497.79" xlink:href="#a3a06142-ab00-4f11-8aa7-80c761d3d43d"/><linearGradient id="b1418f90-629a-4fe4-a4f8-24a8026e3b68" x1="691.18" y1="497.79" x2="761.06" y2="497.79" xlink:href="#a3a06142-ab00-4f11-8aa7-80c761d3d43d"/><linearGradient id="a95cf799-7a7c-438a-a404-fe74049a3bf6" x1="770.08" y1="497.79" x2="840.72" y2="497.79" xlink:href="#a3a06142-ab00-4f11-8aa7-80c761d3d43d"/><linearGradient id="f2bb3529-f28a-4e72-8c26-b9bada4b3536" x1="853.75" y1="497.79" x2="924.39" y2="497.79" xlink:href="#a3a06142-ab00-4f11-8aa7-80c761d3d43d"/><linearGradient id="af73d201-55fe-40f4-91c8-6d23c9e3d0f9" x1="420.45" y1="569.69" x2="445.24" y2="569.69" xlink:href="#a3a06142-ab00-4f11-8aa7-80c761d3d43d"/><linearGradient id="bab8995f-b1bc-4843-848a-bd32bb690ed5" x1="448.71" y1="575.22" x2="467.87" y2="575.22" xlink:href="#a3a06142-ab00-4f11-8aa7-80c761d3d43d"/><linearGradient id="ada10d50-bf74-40f3-a6de-d7138ccbc184" x1="471.06" y1="572.52" x2="490.01" y2="572.52" xlink:href="#a3a06142-ab00-4f11-8aa7-80c761d3d43d"/><linearGradient id="efac4c92-3a96-44f4-8125-a7317ecb03aa" x1="492.81" y1="572.52" x2="511.97" y2="572.52" xlink:href="#a3a06142-ab00-4f11-8aa7-80c761d3d43d"/><linearGradient id="b26bf6b5-0546-4b95-bea9-2fc0231aaac2" x1="525.67" y1="572.52" x2="542.98" y2="572.52" xlink:href="#a3a06142-ab00-4f11-8aa7-80c761d3d43d"/><linearGradient id="e826466b-f620-4e10-aa64-af8e6c357220" x1="545.54" y1="572.52" x2="564.69" y2="572.52" xlink:href="#a3a06142-ab00-4f11-8aa7-80c761d3d43d"/><linearGradient id="ae491131-ccb6-4839-bd79-03671d66bcc5" x1="567.97" y1="572.52" x2="587.13" y2="572.52" xlink:href="#a3a06142-ab00-4f11-8aa7-80c761d3d43d"/><linearGradient id="a4b229bb-8280-46eb-9bf8-86b2417bcb97" x1="590.93" y1="572.52" x2="606.16" y2="572.52" xlink:href="#a3a06142-ab00-4f11-8aa7-80c761d3d43d"/><linearGradient id="b4df78af-ab6f-4909-891b-3ac23cba673f" x1="608.48" y1="572.52" x2="625.57" y2="572.52" xlink:href="#a3a06142-ab00-4f11-8aa7-80c761d3d43d"/><linearGradient id="bc3707f0-529e-4b53-a9cc-4cf3b911a2ad" x1="628.53" y1="572.52" x2="647.48" y2="572.52" xlink:href="#a3a06142-ab00-4f11-8aa7-80c761d3d43d"/><linearGradient id="bc860219-52ce-4ea5-aab5-255c18ae3916" x1="660.93" y1="572.52" x2="685.71" y2="572.52" xlink:href="#a3a06142-ab00-4f11-8aa7-80c761d3d43d"/><linearGradient id="fbe80509-758e-4ca2-a994-06b7ad62935c" x1="689.28" y1="572.52" x2="708.44" y2="572.52" xlink:href="#a3a06142-ab00-4f11-8aa7-80c761d3d43d"/><linearGradient id="be51784e-5f76-4e96-951f-6a730fb4caeb" x1="711.75" y1="572.52" x2="729.05" y2="572.52" xlink:href="#a3a06142-ab00-4f11-8aa7-80c761d3d43d"/><linearGradient id="b19f06c0-de93-4fc2-a32c-871d00334a35" x1="732.03" y1="568.86" x2="736.18" y2="568.86" xlink:href="#a3a06142-ab00-4f11-8aa7-80c761d3d43d"/><linearGradient id="a08ce06b-dbe6-4c2e-90ed-b67973521560" x1="739.81" y1="572.52" x2="756.91" y2="572.52" xlink:href="#a3a06142-ab00-4f11-8aa7-80c761d3d43d"/><linearGradient id="bd647754-f972-4f27-a5b7-9701dc8042f6" x1="770.9" y1="575.22" x2="790.06" y2="575.22" xlink:href="#a3a06142-ab00-4f11-8aa7-80c761d3d43d"/><linearGradient id="ffea7381-6a47-495e-a1d1-9b036cdc02fb" x1="793.51" y1="568.86" x2="801.2" y2="568.86" xlink:href="#a3a06142-ab00-4f11-8aa7-80c761d3d43d"/><linearGradient id="a1a53d39-9d99-46d1-8f1c-d27f422c95f9" x1="802.77" y1="572.52" x2="821.72" y2="572.52" xlink:href="#a3a06142-ab00-4f11-8aa7-80c761d3d43d"/><linearGradient id="a4f2a787-1a2c-46ad-b7e9-faa8ebeb7b41" x1="824.06" y1="569.69" x2="840.93" y2="569.69" xlink:href="#a3a06142-ab00-4f11-8aa7-80c761d3d43d"/><linearGradient id="e689a6d6-e969-4427-af5f-f8848b0f5ab6" x1="843.72" y1="568.77" x2="858.96" y2="568.77" xlink:href="#a3a06142-ab00-4f11-8aa7-80c761d3d43d"/><linearGradient id="aefeec88-a4ae-4b46-8172-51b07038a1d3" x1="861.27" y1="572.52" x2="880.43" y2="572.52" xlink:href="#a3a06142-ab00-4f11-8aa7-80c761d3d43d"/><linearGradient id="b25087db-f06c-4e96-99d6-6f4b3067e632" x1="883.86" y1="572.52" x2="899.09" y2="572.52" xlink:href="#a3a06142-ab00-4f11-8aa7-80c761d3d43d"/><linearGradient id="b8f2f9ae-6644-4a35-9767-d7cbd570d5e0" x1="901.82" y1="572.52" x2="926.61" y2="572.52" xlink:href="#a3a06142-ab00-4f11-8aa7-80c761d3d43d"/></defs><circle class="a620cf17-c8bb-45fc-8056-4a6018fb321c" cx="137" cy="137" r="137"/><path class="fb687a2b-9985-4463-a94c-9439d899be24" d="M240.16,400A112.17,112.17,0,1,0,352.34,512.17,112.17,112.17,0,0,0,240.16,400Zm66.55,91.74a5.73,5.73,0,1,1-11.28-2,40.09,40.09,0,0,0-26.84-45.11c-2.11,11.81-19,106.19-21.09,118l-.05.35c-.07.34-.13.73-.2,1.06-2.63,14.77-19.94,24.07-38.61,20.73s-31.67-18-29-32.81,19.94-24.08,38.61-20.73a39.53,39.53,0,0,1,21.32,10.9c1.88-10.54,17-95,18.85-105.52a5.73,5.73,0,0,1,6.65-4.63A51.55,51.55,0,0,1,306.71,491.74Z" transform="translate(-102 -375)"/><g id="a882bd2c-f6c9-46f5-b1b6-201522b3b3c7" data-name="ayPFjmWdV"><g id="f7d0f496-b0f9-4ff2-9e5a-e9b179a5a6a5" data-name="b8uZ9TJHDl" class="a908c061-d21e-4973-a430-5fbef28552c6"><g class="a908c061-d21e-4973-a430-5fbef28552c6"><path class="ab93c24f-906d-4e4f-837b-0308e16b2da5" d="M520.24,529.77H504.8V479.24l-27.19,48a6.7,6.7,0,0,1-2.8,2.78,8.17,8.17,0,0,1-3.86,1,7.67,7.67,0,0,1-3.74-1,6.82,6.82,0,0,1-2.75-2.78l-27.3-48v50.53H421.83V451.49a7.71,7.71,0,0,1,5.66-7.52,8.33,8.33,0,0,1,2.48-.2,7.88,7.88,0,0,1,2.39.53,7.27,7.27,0,0,1,2.09,1.24,7.09,7.09,0,0,1,1.59,1.92L471,508.35l34.91-60.89a7.47,7.47,0,0,1,3.74-3.19,8,8,0,0,1,5-.3,7.73,7.73,0,0,1,4.07,2.78,7.57,7.57,0,0,1,1.59,4.74Z" transform="translate(-102 -375)"/><path class="bbd6ad3f-7776-4572-8f0c-9d5cf7ae0228" d="M605.74,522a7.83,7.83,0,0,1-.59,3.08,7.42,7.42,0,0,1-1.62,2.46,7.61,7.61,0,0,1-5.39,2.22H563.47a30.82,30.82,0,0,1-6.05-.65,28.79,28.79,0,0,1-6.34-2.11,32.55,32.55,0,0,1-6-3.66,23.2,23.2,0,0,1-5.1-5.39,27.23,27.23,0,0,1-3.51-7.31,30.66,30.66,0,0,1-1.33-9.34v-35.5h15.33v35.5a13.52,13.52,0,0,0,1,5.41,12.39,12.39,0,0,0,2.8,4.11,12.21,12.21,0,0,0,4.15,2.64,14.36,14.36,0,0,0,5.16.91h26.83V465.81h15.33Z" transform="translate(-102 -375)"/><path class="ac30de70-15b3-4247-9d5c-1ef595d6e794" d="M681.75,508.17a23.85,23.85,0,0,1-1,7.13,20.92,20.92,0,0,1-2.66,5.56,18,18,0,0,1-3.83,4.08,22,22,0,0,1-4.57,2.75,23.07,23.07,0,0,1-4.83,1.57,22.83,22.83,0,0,1-4.63.51H618.72V514.38h41.39a6.38,6.38,0,0,0,4.72-1.6,6.25,6.25,0,0,0,1.59-4.61q-.3-6.15-6.19-6.15H636.46a19,19,0,0,1-8.6-1.78,17.44,17.44,0,0,1-5.75-4.44,16.75,16.75,0,0,1-3.19-5.74,19,19,0,0,1-1-5.73,18.6,18.6,0,0,1,1.83-8.67,17.27,17.27,0,0,1,4.6-5.71,17.94,17.94,0,0,1,6-3.17,21.14,21.14,0,0,1,6.07-1h37.68v15.38H636.58a5.23,5.23,0,0,0-1.86.27,2.13,2.13,0,0,0-1,.71,2,2,0,0,0-.38.94,8.31,8.31,0,0,0-.06,1,3.7,3.7,0,0,0,.35,1.48,2,2,0,0,0,.74.77,2.51,2.51,0,0,0,1,.26l1.09,0h23.77a21.63,21.63,0,0,1,10,2.13,20,20,0,0,1,6.66,5.36,21.29,21.29,0,0,1,3.69,7A24.18,24.18,0,0,1,681.75,508.17Z" transform="translate(-102 -375)"/><path class="a7c1e532-e62e-4ddd-aa71-9bc81c19929a" d="M761.06,487a24,24,0,0,1-1.12,6.89,20.64,20.64,0,0,1-3.63,6.86,20.25,20.25,0,0,1-6.54,5.3,20.86,20.86,0,0,1-9.82,2.13H712.29V493.56H740a6.14,6.14,0,0,0,4.83-1.93,6.9,6.9,0,0,0,1.71-4.76,6,6,0,0,0-1.91-4.73,6.68,6.68,0,0,0-4.63-1.72H712.29a6.13,6.13,0,0,0-4.83,1.92,6.93,6.93,0,0,0-1.71,4.77v21.47a6.11,6.11,0,0,0,1.92,4.8,6.85,6.85,0,0,0,4.74,1.71H740v14.68H712.29a23.66,23.66,0,0,1-6.87-1.13,20.45,20.45,0,0,1-6.83-3.64,20,20,0,0,1-5.28-6.57,20.93,20.93,0,0,1-2.13-9.85V487a23.85,23.85,0,0,1,1.13-6.9,20.52,20.52,0,0,1,3.62-6.86,20.16,20.16,0,0,1,6.55-5.29,20.79,20.79,0,0,1,9.81-2.13H740a23.63,23.63,0,0,1,6.87,1.12,20.59,20.59,0,0,1,6.84,3.64,20.35,20.35,0,0,1,5.28,6.57A21.05,21.05,0,0,1,761.06,487Z" transform="translate(-102 -375)"/><path class="a93af745-4ddd-48c1-8104-f4efebc629ba" d="M840.72,508.17a23.53,23.53,0,0,1-1,7.13,20.92,20.92,0,0,1-2.66,5.56,18,18,0,0,1-3.83,4.08,22,22,0,0,1-4.57,2.75,23.07,23.07,0,0,1-4.83,1.57,22.83,22.83,0,0,1-4.63.51H791.54a24.56,24.56,0,0,1-7-1.13,20.38,20.38,0,0,1-7-3.7,20.63,20.63,0,0,1-5.37-6.68,21.63,21.63,0,0,1-2.15-10.09V487.34a21.51,21.51,0,0,1,2.15-10,20.63,20.63,0,0,1,5.37-6.68,20.38,20.38,0,0,1,7-3.7,24.53,24.53,0,0,1,7-1.12H819.2a21.63,21.63,0,0,1,10,2.13,19.94,19.94,0,0,1,6.66,5.35,21.39,21.39,0,0,1,3.69,7,24.24,24.24,0,0,1,1.15,7Zm-15.33-20.71a5.52,5.52,0,0,0-6.19-6.27H791.66a6.36,6.36,0,0,0-4.66,1.57,6.14,6.14,0,0,0-1.59,4.58v20.83a5.59,5.59,0,0,0,6.25,6.21H819.2a6.18,6.18,0,0,0,4.66-1.6,6.4,6.4,0,0,0,1.53-4.61Z" transform="translate(-102 -375)"/><path class="a310645e-6704-4e53-831b-06d74a8a9c0f" d="M924.39,529.77H909.06V494.26a13.52,13.52,0,0,0-1-5.41,12.54,12.54,0,0,0-2.8-4.11,12.23,12.23,0,0,0-4.16-2.63,14.08,14.08,0,0,0-5.16-.92H869.08v48.58H853.75V473.44a7.63,7.63,0,0,1,.59-3A7.27,7.27,0,0,1,856,468a7.72,7.72,0,0,1,2.48-1.62,7.59,7.59,0,0,1,3-.59H896a30.26,30.26,0,0,1,6.1.65,28.64,28.64,0,0,1,6.37,2.1,31.05,31.05,0,0,1,6,3.66,24.88,24.88,0,0,1,5.07,5.39,26.48,26.48,0,0,1,3.5,7.31,31,31,0,0,1,1.3,9.34Z" transform="translate(-102 -375)"/></g></g></g><g id="eb74c88a-11aa-4e6b-874c-ae8c181af4c0" data-name="f1hPzGDXa"><g id="b6b6790c-9ba4-44cd-a999-be5cc9cb6495" data-name="dc5xjm4xp" class="a908c061-d21e-4973-a430-5fbef28552c6"><g class="a908c061-d21e-4973-a430-5fbef28552c6"><path class="be8fc56b-e07f-409c-9401-c5cb0c6234b2" d="M445.24,571.88a10.09,10.09,0,0,1-.72,3.86,9.29,9.29,0,0,1-2,3,9.12,9.12,0,0,1-3,2,10.14,10.14,0,0,1-3.82.71h-5.62a10.23,10.23,0,0,1-3.83-.71,9,9,0,0,1-5-5,9.91,9.91,0,0,1-.73-3.86V567.5a9.91,9.91,0,0,1,.73-3.84,9,9,0,0,1,2-3,9.12,9.12,0,0,1,3-2,10,10,0,0,1,3.83-.72h5.62a10,10,0,0,1,3.82.72,9,9,0,0,1,5,5,10.09,10.09,0,0,1,.72,3.84Zm-4.16-4.38a6.1,6.1,0,0,0-.39-2.23,5,5,0,0,0-1.11-1.71,4.89,4.89,0,0,0-1.71-1.1,6,6,0,0,0-2.2-.39h-5.62a6.09,6.09,0,0,0-2.22.39,5,5,0,0,0-1.72,1.1,5,5,0,0,0-1.11,1.71,6.1,6.1,0,0,0-.39,2.23v4.38a6.12,6.12,0,0,0,.39,2.24,5,5,0,0,0,1.11,1.71,5,5,0,0,0,1.72,1.1,6.09,6.09,0,0,0,2.22.39h5.59a6.09,6.09,0,0,0,2.22-.39,5.12,5.12,0,0,0,1.72-1.1,5,5,0,0,0,1.11-1.71,6.12,6.12,0,0,0,.39-2.24Z" transform="translate(-102 -375)"/><path class="ffd38d7b-7a2f-4429-aeff-eecd77873886" d="M467.87,575.32a6.37,6.37,0,0,1-.28,1.93,5.49,5.49,0,0,1-.72,1.5,4.78,4.78,0,0,1-1,1.11,5.81,5.81,0,0,1-1.24.74,6.35,6.35,0,0,1-1.3.42,6.22,6.22,0,0,1-1.25.14h-7.5V577H462a1.65,1.65,0,0,0,1.25-.43,1.72,1.72,0,0,0,.42-1.25v-5.59A1.5,1.5,0,0,0,462,568h-7.46a1.75,1.75,0,0,0-1.28.42,1.67,1.67,0,0,0-.43,1.24v16.87h-4.16V569.69a6.36,6.36,0,0,1,.27-1.92,5.3,5.3,0,0,1,.73-1.49,5,5,0,0,1,1-1.1,5.94,5.94,0,0,1,1.24-.75,6.52,6.52,0,0,1,1.32-.42,6.19,6.19,0,0,1,1.23-.14H462a6.27,6.27,0,0,1,1.92.27,6.14,6.14,0,0,1,1.5.72,5,5,0,0,1,1.1,1,6.06,6.06,0,0,1,1.17,2.55,6.12,6.12,0,0,1,.14,1.24Z" transform="translate(-102 -375)"/><path class="aab1dd4d-0bdc-4b30-8a05-18d5ebbd8afa" d="M490,569.6a6.53,6.53,0,0,1-.3,1.86,5.55,5.55,0,0,1-1,1.86,5.42,5.42,0,0,1-4.44,2h-7.5v-4h7.5a1.66,1.66,0,0,0,1.31-.52,1.83,1.83,0,0,0,.46-1.28,1.61,1.61,0,0,0-.52-1.28,1.8,1.8,0,0,0-1.25-.47h-7.5a1.68,1.68,0,0,0-1.31.52,1.88,1.88,0,0,0-.47,1.29v5.8a1.67,1.67,0,0,0,.52,1.3,1.87,1.87,0,0,0,1.29.46h7.47v4h-7.5a6.43,6.43,0,0,1-1.86-.3,5.58,5.58,0,0,1-1.86-1,5.39,5.39,0,0,1-1.43-1.77,5.72,5.72,0,0,1-.58-2.67V569.6a6.24,6.24,0,0,1,.31-1.87,5.6,5.6,0,0,1,1-1.85,5.43,5.43,0,0,1,1.78-1.43,5.56,5.56,0,0,1,2.66-.58h7.5a6.23,6.23,0,0,1,1.86.31,5.55,5.55,0,0,1,1.86,1,5.63,5.63,0,0,1,1.43,1.77A5.75,5.75,0,0,1,490,569.6Z" transform="translate(-102 -375)"/><path class="b6bb7482-dfc4-4220-998c-c0a8fb2073d4" d="M512,581.16h-4.16v-9.6a3.59,3.59,0,0,0-.28-1.46,3.32,3.32,0,0,0-.76-1.11,3.19,3.19,0,0,0-1.12-.71,3.82,3.82,0,0,0-1.4-.25H497v13.13h-4.16V565.94a2,2,0,0,1,.61-1.47,2.36,2.36,0,0,1,.67-.44,2.26,2.26,0,0,1,.82-.16h9.37a8.32,8.32,0,0,1,3.38.75,8.35,8.35,0,0,1,1.63,1,6.58,6.58,0,0,1,1.38,1.45,7.27,7.27,0,0,1,.95,2,8.53,8.53,0,0,1,.35,2.52Z" transform="translate(-102 -375)"/><path class="fe8fdc4d-4dd5-49a1-a18a-99d0c6c14061" d="M543,575.32a6.08,6.08,0,0,1-.28,1.93,5.78,5.78,0,0,1-.71,1.5,5.25,5.25,0,0,1-1,1.11,6.35,6.35,0,0,1-1.24.74,6.52,6.52,0,0,1-1.32.42,6.3,6.3,0,0,1-1.25.14H525.88V577h11.23a1.74,1.74,0,0,0,1.28-.43,1.72,1.72,0,0,0,.43-1.25,1.52,1.52,0,0,0-1.68-1.66H530.7a5.19,5.19,0,0,1-2.34-.48,4.77,4.77,0,0,1-1.56-1.2,4.5,4.5,0,0,1-.86-1.55,5.21,5.21,0,0,1,.23-3.89,4.72,4.72,0,0,1,1.25-1.55,4.8,4.8,0,0,1,1.63-.85,5.57,5.57,0,0,1,1.65-.27h10.21V568H530.73a1.69,1.69,0,0,0-.51.07.62.62,0,0,0-.27.19.52.52,0,0,0-.1.26,2.46,2.46,0,0,0,0,.26.84.84,0,0,0,.1.4.45.45,0,0,0,.2.21.6.6,0,0,0,.27.07h6.74a5.82,5.82,0,0,1,2.72.58,5.45,5.45,0,0,1,1.81,1.44,5.86,5.86,0,0,1,1,1.9A6.52,6.52,0,0,1,543,575.32Z" transform="translate(-102 -375)"/><path class="f299d969-372e-48b1-be8d-11c8343719ae" d="M564.69,575.32a6.38,6.38,0,0,1-.27,1.93,5.49,5.49,0,0,1-.72,1.5,5,5,0,0,1-1,1.11,6.07,6.07,0,0,1-1.24.74,6.44,6.44,0,0,1-1.31.42,6.3,6.3,0,0,1-1.25.14h-7.5a6.73,6.73,0,0,1-1.89-.3,5.79,5.79,0,0,1-1.9-1,5.71,5.71,0,0,1-1.45-1.81,5.8,5.8,0,0,1-.58-2.73v-5.63a5.77,5.77,0,0,1,.58-2.71,5.56,5.56,0,0,1,1.45-1.8,5.43,5.43,0,0,1,1.9-1,6.42,6.42,0,0,1,1.89-.31h7.5a5.77,5.77,0,0,1,2.71.58,5.25,5.25,0,0,1,1.81,1.45,5.74,5.74,0,0,1,1,1.89,6.48,6.48,0,0,1,.31,1.9Zm-4.16-5.59a1.68,1.68,0,0,0-.43-1.28,1.71,1.71,0,0,0-1.24-.42h-7.47a1.75,1.75,0,0,0-1.27.42,1.71,1.71,0,0,0-.43,1.24v5.63a1.51,1.51,0,0,0,1.7,1.68h7.47a1.67,1.67,0,0,0,1.26-.43,1.71,1.71,0,0,0,.41-1.25Z" transform="translate(-102 -375)"/><path class="bdfff77e-52e8-45b2-9e39-e72cd26ac510" d="M587.13,579.06a2.08,2.08,0,0,1-.6,1.5,2.12,2.12,0,0,1-.66.44,2,2,0,0,1-.8.16h-9.41A8.14,8.14,0,0,1,574,581a7.51,7.51,0,0,1-1.72-.56,9.28,9.28,0,0,1-1.63-1,6.4,6.4,0,0,1-1.39-1.45,7.58,7.58,0,0,1-.95-2,8.16,8.16,0,0,1-.36-2.52v-9.6h4.16v9.6a3.59,3.59,0,0,0,.28,1.46,3.32,3.32,0,0,0,.76,1.11,3.19,3.19,0,0,0,1.12.71,3.82,3.82,0,0,0,1.4.25H583V563.87h4.16Z" transform="translate(-102 -375)"/><path class="b9377e0f-4dff-4e45-8c06-5a7887dac4e8" d="M606.16,568H596.8a1.78,1.78,0,0,0-1.28.42,1.71,1.71,0,0,0-.43,1.24v11.47h-4.16V569.69a6.06,6.06,0,0,1,.28-1.92,5.57,5.57,0,0,1,.72-1.49,5.25,5.25,0,0,1,1.05-1.1,5.94,5.94,0,0,1,1.24-.75,6.44,6.44,0,0,1,1.31-.42,6.28,6.28,0,0,1,1.24-.14h9.39Z" transform="translate(-102 -375)"/><path class="b2ac45a7-7416-4ed5-9da2-d05df03d2171" d="M625.57,581.16H614.3a6.73,6.73,0,0,1-1.89-.3,5.74,5.74,0,0,1-1.89-1,5.6,5.6,0,0,1-1.46-1.81,5.8,5.8,0,0,1-.58-2.73v-5.63a6.08,6.08,0,0,1,.13-1.24,5.91,5.91,0,0,1,.43-1.31,6.35,6.35,0,0,1,.74-1.24,5,5,0,0,1,1.1-1,5.88,5.88,0,0,1,3.42-1h11.27V568H614.3a1.68,1.68,0,0,0-1.24.42,1.72,1.72,0,0,0-.43,1.28v5.59a1.52,1.52,0,0,0,1.7,1.68h11.24Z" transform="translate(-102 -375)"/><path class="af7b7ec2-067f-4554-9e1e-eebf864d61f7" d="M647.48,569.6a6.53,6.53,0,0,1-.3,1.86,5.58,5.58,0,0,1-1,1.86,5.52,5.52,0,0,1-1.77,1.43,5.73,5.73,0,0,1-2.67.57h-7.5v-4h7.5a1.67,1.67,0,0,0,1.32-.52,1.83,1.83,0,0,0,.46-1.28,1.61,1.61,0,0,0-.52-1.28,1.82,1.82,0,0,0-1.26-.47h-7.5a1.69,1.69,0,0,0-1.31.52,1.87,1.87,0,0,0-.46,1.29v5.8a1.64,1.64,0,0,0,.52,1.3,1.87,1.87,0,0,0,1.29.46h7.46v4h-7.5a6.53,6.53,0,0,1-1.86-.3,5.63,5.63,0,0,1-1.85-1,5.39,5.39,0,0,1-1.43-1.77,5.6,5.6,0,0,1-.58-2.67V569.6a6.55,6.55,0,0,1,.3-1.87,5.63,5.63,0,0,1,1-1.85,5.39,5.39,0,0,1,1.77-1.43,5.59,5.59,0,0,1,2.66-.58h7.5a6.24,6.24,0,0,1,1.87.31,5.6,5.6,0,0,1,1.85,1,5.49,5.49,0,0,1,1.43,1.77A5.63,5.63,0,0,1,647.48,569.6Z" transform="translate(-102 -375)"/><path class="bd98518a-ed9b-4809-92e6-da6b5128a675" d="M676.36,581.16H672.2V569.69a1.67,1.67,0,0,0-.43-1.24,1.76,1.76,0,0,0-1.28-.42h-5.4v13.13h-4.16V565.94a2,2,0,0,1,.61-1.47,2.12,2.12,0,0,1,1.48-.6h7.5a6.13,6.13,0,0,1,1.86.31,6.07,6.07,0,0,1,1.89,1v-1.28h5.62a6.22,6.22,0,0,1,1.25.14,6.35,6.35,0,0,1,1.3.42,5.47,5.47,0,0,1,1.24.75,4.75,4.75,0,0,1,1,1.1,5.57,5.57,0,0,1,.72,1.49,6.36,6.36,0,0,1,.27,1.92v11.47h-4.15V569.69a1.75,1.75,0,0,0-.41-1.24,1.68,1.68,0,0,0-1.26-.42h-3.74a6.29,6.29,0,0,1,.21,1.66Z" transform="translate(-102 -375)"/><path class="ecb4cd3e-6ea3-4cd3-a039-bd667db7b747" d="M708.44,579.06a2.32,2.32,0,0,1-.16.84,2,2,0,0,1-1.1,1.1,2,2,0,0,1-.8.16H697a8.21,8.21,0,0,1-1.64-.18,7.51,7.51,0,0,1-1.72-.56,9.28,9.28,0,0,1-1.63-1,6.4,6.4,0,0,1-1.39-1.45,7.58,7.58,0,0,1-1-2,8.16,8.16,0,0,1-.36-2.52v-9.6h4.16v9.6a3.59,3.59,0,0,0,.28,1.46,3.48,3.48,0,0,0,.76,1.11,3.15,3.15,0,0,0,1.13.71A3.73,3.73,0,0,0,697,577h7.28V563.87h4.16Z" transform="translate(-102 -375)"/><path class="a60ec23b-a345-44cc-b575-10b29cb8603d" d="M729.05,575.32a6.38,6.38,0,0,1-.27,1.93,5.49,5.49,0,0,1-.72,1.5,5,5,0,0,1-1,1.11,6.07,6.07,0,0,1-1.24.74,6.44,6.44,0,0,1-1.31.42,6.31,6.31,0,0,1-1.26.14H712V577h11.22a1.72,1.72,0,0,0,1.28-.43,1.68,1.68,0,0,0,.43-1.25,1.52,1.52,0,0,0-1.68-1.66h-6.44a5.15,5.15,0,0,1-2.33-.48,4.77,4.77,0,0,1-1.56-1.2,4.7,4.7,0,0,1-.87-1.55,5.29,5.29,0,0,1-.26-1.55,4.88,4.88,0,0,1,.5-2.34,4.69,4.69,0,0,1,1.24-1.55,4.9,4.9,0,0,1,1.63-.85,5.67,5.67,0,0,1,1.65-.27H727V568H716.8a1.62,1.62,0,0,0-.5.07.57.57,0,0,0-.27.19.54.54,0,0,0-.11.26,2.35,2.35,0,0,0,0,.26,1,1,0,0,0,.09.4.51.51,0,0,0,.2.21.6.6,0,0,0,.27.07h6.74a5.79,5.79,0,0,1,2.72.58,5.35,5.35,0,0,1,1.81,1.44,5.89,5.89,0,0,1,1,1.9A6.48,6.48,0,0,1,729.05,575.32Z" transform="translate(-102 -375)"/><path class="ad9f0e45-8405-4fe3-8786-424531b19481" d="M736.18,560.32H732v-3.76h4.15Zm0,20.84H732V563.87h4.15Z" transform="translate(-102 -375)"/><path class="b122860c-f6b9-4ce4-a611-64fb436ef060" d="M756.91,581.16H745.63a6.72,6.72,0,0,1-1.88-.3,5.79,5.79,0,0,1-1.9-1,5.71,5.71,0,0,1-1.45-1.81,5.8,5.8,0,0,1-.59-2.73v-5.63a6.12,6.12,0,0,1,.14-1.24,6.06,6.06,0,0,1,1.17-2.55,5,5,0,0,1,1.1-1,6.14,6.14,0,0,1,1.5-.72,6.25,6.25,0,0,1,1.91-.27h11.28V568H745.63a1.5,1.5,0,0,0-1.66,1.7v5.59a1.51,1.51,0,0,0,1.7,1.68h11.24Z" transform="translate(-102 -375)"/><path class="adeddf57-4bf9-4f0a-96d4-905b5c3a87f3" d="M790.06,575.32a6.38,6.38,0,0,1-.27,1.93,5.49,5.49,0,0,1-.72,1.5,5.25,5.25,0,0,1-1,1.11,6.35,6.35,0,0,1-1.24.74,6.55,6.55,0,0,1-1.3.42,6.3,6.3,0,0,1-1.25.14h-7.5V577h7.5a1.66,1.66,0,0,0,1.25-.43,1.76,1.76,0,0,0,.41-1.25v-5.59a1.49,1.49,0,0,0-1.66-1.7h-7.47a1.76,1.76,0,0,0-1.28.42,1.67,1.67,0,0,0-.43,1.24v16.87H770.9V569.69a6.36,6.36,0,0,1,.27-1.92,5.59,5.59,0,0,1,.73-1.49,4.79,4.79,0,0,1,1.05-1.1,5.47,5.47,0,0,1,1.24-.75,6.44,6.44,0,0,1,1.31-.42,6.2,6.2,0,0,1,1.24-.14h7.5a6.36,6.36,0,0,1,1.92.27,6.25,6.25,0,0,1,1.49.72,5,5,0,0,1,1.1,1,5.94,5.94,0,0,1,.75,1.24,6.44,6.44,0,0,1,.42,1.31,6.12,6.12,0,0,1,.14,1.24Z" transform="translate(-102 -375)"/><path class="ad61fb21-9bcb-42ae-80e8-aff33b7e23f6" d="M801.2,581.16h-1.85a6.75,6.75,0,0,1-1.91-.3,5.89,5.89,0,0,1-1.9-1,5.57,5.57,0,0,1-1.45-1.81,5.8,5.8,0,0,1-.58-2.73V556.56h4.16v18.76a1.63,1.63,0,0,0,.48,1.23,1.69,1.69,0,0,0,1.2.45h1.85Z" transform="translate(-102 -375)"/><path class="a1d6ed82-9bd7-4dcf-b2c9-a1eb1402a139" d="M821.72,575.43a6.55,6.55,0,0,1-.3,1.87,5.63,5.63,0,0,1-1,1.85,5.39,5.39,0,0,1-1.77,1.43,5.59,5.59,0,0,1-2.66.58h-7.5a6.55,6.55,0,0,1-1.87-.3,5.63,5.63,0,0,1-1.85-1,5.39,5.39,0,0,1-1.43-1.77,5.6,5.6,0,0,1-.58-2.67,6.35,6.35,0,0,1,.31-1.87,5.55,5.55,0,0,1,1-1.86,5.39,5.39,0,0,1,1.77-1.43,5.72,5.72,0,0,1,2.67-.58H816v4h-7.5a1.67,1.67,0,0,0-1.32.52,1.9,1.9,0,0,0-.46,1.29,1.58,1.58,0,0,0,.54,1.27,1.9,1.9,0,0,0,1.27.45H816a1.69,1.69,0,0,0,1.31-.51,1.83,1.83,0,0,0,.46-1.28v-5.8a1.72,1.72,0,0,0-.5-1.3,1.78,1.78,0,0,0-1.27-.48h-9.13v-4H816a6.23,6.23,0,0,1,1.86.31,5.51,5.51,0,0,1,1.85,1,5.65,5.65,0,0,1,1.44,1.77,5.75,5.75,0,0,1,.57,2.67Z" transform="translate(-102 -375)"/><path class="a33bb959-b8c0-4ffd-b353-73bafefbc29c" d="M840.93,568h-7.26v13.13h-4.21V568h-5.4v-4.16h5.4v-5.64h4.21v5.64h7.26Z" transform="translate(-102 -375)"/><path class="e98ba011-084c-4922-8adc-e6965a7fecee" d="M859,560.53h-9.37a1.78,1.78,0,0,0-1.28.42,1.71,1.71,0,0,0-.43,1.24v19h-4.16v-19a6.35,6.35,0,0,1,.28-1.92,5.57,5.57,0,0,1,.72-1.49,5.25,5.25,0,0,1,1-1.1,5.94,5.94,0,0,1,1.24-.75,6.55,6.55,0,0,1,1.3-.42,6.3,6.3,0,0,1,1.25-.14H859Zm0,7.5h-9.4v-4.16H859Z" transform="translate(-102 -375)"/><path class="a8a94b62-1959-4c4d-b22c-9e57545fb945" d="M880.43,575.32a6.37,6.37,0,0,1-.28,1.93,5.49,5.49,0,0,1-.72,1.5,4.78,4.78,0,0,1-1,1.11,6,6,0,0,1-1.23.74,6.52,6.52,0,0,1-1.32.42,6.3,6.3,0,0,1-1.25.14h-7.5a6.73,6.73,0,0,1-1.89-.3,5.54,5.54,0,0,1-3.35-2.81,5.8,5.8,0,0,1-.58-2.73v-5.63a5.77,5.77,0,0,1,.58-2.71,5.58,5.58,0,0,1,1.46-1.8,5.39,5.39,0,0,1,1.89-1,6.42,6.42,0,0,1,1.89-.31h7.5a5.84,5.84,0,0,1,2.72.58,5.21,5.21,0,0,1,1.8,1.45,5.56,5.56,0,0,1,1,1.89,6.52,6.52,0,0,1,.32,1.9Zm-4.16-5.59a1.5,1.5,0,0,0-1.68-1.7h-7.47a1.74,1.74,0,0,0-1.26.42,1.67,1.67,0,0,0-.43,1.24v5.63a1.68,1.68,0,0,0,.43,1.25,1.7,1.7,0,0,0,1.26.43h7.47a1.66,1.66,0,0,0,1.26-.43,1.72,1.72,0,0,0,.42-1.25Z" transform="translate(-102 -375)"/><path class="b6bccbbe-fd08-406b-a384-c0d44666c150" d="M899.09,568h-9.36a1.78,1.78,0,0,0-1.28.42,1.71,1.71,0,0,0-.43,1.24v11.47h-4.16V569.69a6.06,6.06,0,0,1,.28-1.92,5.57,5.57,0,0,1,.72-1.49,5.25,5.25,0,0,1,1-1.1,5.7,5.7,0,0,1,1.24-.75,6.44,6.44,0,0,1,1.31-.42,6.28,6.28,0,0,1,1.24-.14h9.39Z" transform="translate(-102 -375)"/><path class="ea85ceb0-f439-4d33-954c-81ce1b89e64a" d="M917.25,581.16H913.1V569.69a1.67,1.67,0,0,0-.44-1.24,1.75,1.75,0,0,0-1.28-.42H906v13.13h-4.16V565.94a2,2,0,0,1,.61-1.47,2.36,2.36,0,0,1,.67-.44,2.26,2.26,0,0,1,.82-.16h7.5a6.52,6.52,0,0,1,3.74,1.28v-1.28h5.63A6.3,6.3,0,0,1,922,564a6.55,6.55,0,0,1,1.3.42,5.94,5.94,0,0,1,1.24.75,5,5,0,0,1,1,1.1,5.57,5.57,0,0,1,.72,1.49,6.36,6.36,0,0,1,.27,1.92v11.47h-4.16V569.69a1.75,1.75,0,0,0-.41-1.24,1.67,1.67,0,0,0-1.25-.42h-3.74a6.74,6.74,0,0,1,.2,1.66Z" transform="translate(-102 -375)"/></g></g></g></svg>